<svg width="431" height="435" viewBox="0 0 431 435" fill="none" xmlns="http://www.w3.org/2000/svg">
<g filter="url(#filter0_d_1003_10)">
<path d="M215.5 0C332.308 0 427 96.6918 427 213.5C427 330.308 332.308 427 215.5 427C98.6918 427 4 330.308 4 213.5C4 96.6918 98.6918 0 215.5 0ZM215 9C103.438 9 13 99.4385 13 211V216C13 327.562 103.438 418 215 418C326.562 418 417 327.562 417 216V211C417 99.4385 326.562 9 215 9ZM202.594 149C203.794 149 204.754 149.42 205.474 150.26C206.314 150.98 206.733 151.94 206.733 153.14V270.86C206.733 272.06 206.314 273.08 205.474 273.92C204.754 274.64 203.794 275 202.594 275H193.414C192.214 275 191.194 274.64 190.354 273.92C189.514 273.08 189.094 272.06 189.094 270.86V227.12H164.44L137.254 270.14C136.534 271.34 135.693 272.48 134.733 273.56C133.773 274.52 132.273 275 130.233 275H121.594C120.634 275 119.794 274.64 119.074 273.92C118.354 273.2 117.994 272.36 117.994 271.4C117.994 270.8 118.174 270.14 118.534 269.42L146.453 225.502C143.684 224.782 141.097 223.822 138.693 222.62C132.814 219.62 128.254 215.24 125.014 209.48C121.894 203.72 120.334 196.7 120.334 188.42C120.334 181.7 121.773 175.34 124.653 169.34C127.653 163.34 132.153 158.48 138.153 154.76C144.273 150.92 152.014 149 161.374 149H202.594ZM315.662 149C316.982 149 318.002 149.42 318.722 150.26C319.442 150.98 319.802 152 319.802 153.32V160.52C319.802 161.84 319.442 162.86 318.722 163.58C318.002 164.3 316.982 164.66 315.662 164.66H255.542V206.6H312.062C313.382 206.6 314.402 207.02 315.122 207.86C315.842 208.58 316.202 209.6 316.202 210.92V218.12C316.202 219.32 315.842 220.34 315.122 221.18C314.402 221.9 313.382 222.26 312.062 222.26H255.542V270.86C255.542 272.06 255.122 273.08 254.282 273.92C253.562 274.64 252.542 275 251.222 275H242.222C240.902 275 239.882 274.64 239.162 273.92C238.442 273.08 238.082 272.06 238.082 270.86V153.32C238.082 152 238.442 150.98 239.162 150.26C239.882 149.42 240.902 149 242.222 149H315.662ZM87.7197 169.34C88.6797 169.34 89.5202 169.7 90.2402 170.42C90.9602 171.02 91.3203 171.92 91.3203 173.12V181.04C91.3203 182.36 90.9602 183.5 90.2402 184.46C89.5202 185.3 88.4997 186.14 87.1797 186.98L38.9404 219.92L87.1797 252.86C88.4996 253.82 89.5202 254.72 90.2402 255.56C90.9602 256.4 91.3203 257.54 91.3203 258.98V266.9C91.3202 267.98 90.9599 268.88 90.2402 269.6C89.5202 270.2 88.6797 270.5 87.7197 270.5C86.9998 270.5 86.2198 270.26 85.3799 269.78C84.66 269.3 84.0003 268.94 83.4004 268.7L26.7002 229.64C24.9003 228.44 23.5802 227.24 22.7402 226.04C21.9002 224.72 21.4805 223.22 21.4805 221.54V218.3C21.4805 216.62 21.9004 215.18 22.7402 213.98C23.5802 212.78 24.9002 211.52 26.7002 210.2L83.4004 171.32C84.0004 170.96 84.6599 170.54 85.3799 170.06C86.2197 169.58 86.9998 169.34 87.7197 169.34ZM343.379 169.34C344.099 169.34 344.879 169.58 345.719 170.06C346.559 170.42 347.219 170.78 347.699 171.14L404.219 210.02C406.139 211.339 407.459 212.6 408.179 213.8C409.019 215 409.439 216.5 409.439 218.3V221.36C409.439 223.04 409.019 224.54 408.179 225.86C407.459 227.06 406.139 228.32 404.219 229.64L347.699 268.52C347.219 268.88 346.559 269.3 345.719 269.78C344.879 270.14 344.099 270.32 343.379 270.32C342.419 270.32 341.579 270.02 340.859 269.42C340.139 268.82 339.779 267.92 339.779 266.72V258.8C339.779 257.36 340.079 256.22 340.679 255.38C341.399 254.54 342.479 253.7 343.919 252.86L391.979 219.92L343.919 186.98C342.479 186.02 341.399 185.12 340.679 184.28C340.079 183.44 339.779 182.3 339.779 180.86V172.94C339.779 171.74 340.139 170.84 340.859 170.24C341.579 169.64 342.419 169.34 343.379 169.34ZM162.813 164.12C155.014 164.12 148.954 166.4 144.634 170.96C140.434 175.52 138.334 181.46 138.334 188.78C138.334 196.46 140.314 202.28 144.273 206.24C148.353 210.08 154.534 212 162.813 212H189.094V164.12H162.813Z" fill="#F0EBD8"/>
</g>
<defs>
<filter id="filter0_d_1003_10" x="0" y="0" width="431" height="435" filterUnits="userSpaceOnUse" color-interpolation-filters="sRGB">
<feFlood flood-opacity="0" result="BackgroundImageFix"/>
<feColorMatrix in="SourceAlpha" type="matrix" values="0 0 0 0 0 0 0 0 0 0 0 0 0 0 0 0 0 0 127 0" result="hardAlpha"/>
<feOffset dy="4"/>
<feGaussianBlur stdDeviation="2"/>
<feComposite in2="hardAlpha" operator="out"/>
<feColorMatrix type="matrix" values="0 0 0 0 0 0 0 0 0 0 0 0 0 0 0 0 0 0 0.25 0"/>
<feBlend mode="normal" in2="BackgroundImageFix" result="effect1_dropShadow_1003_10"/>
<feBlend mode="normal" in="SourceGraphic" in2="effect1_dropShadow_1003_10" result="shape"/>
</filter>
</defs>
</svg>
